<svg width="341" height="286" viewBox="0 0 341 286" fill="none" xmlns="http://www.w3.org/2000/svg">
<path d="M90.824 173.869C89.9059 173.869 88.9784 173.854 88.0681 173.826L88.0887 173.165C89.3959 173.206 90.7299 173.217 92.0433 173.199L92.0523 173.86C91.6435 173.866 91.2341 173.868 90.824 173.869ZM96.0343 173.715L95.9955 173.055C97.3046 172.978 98.6305 172.87 99.9364 172.733L100.006 173.391C98.6897 173.528 97.3537 173.638 96.0343 173.715ZM84.0896 173.612C82.7695 173.511 81.4355 173.379 80.1245 173.218L80.2053 172.562C81.5063 172.721 82.83 172.853 84.1401 172.953L84.0896 173.612ZM103.958 172.885L103.858 172.232C105.159 172.035 106.47 171.806 107.753 171.551L107.882 172.199C106.589 172.456 105.268 172.687 103.958 172.885ZM76.1821 172.644C74.878 172.423 73.5616 172.169 72.2696 171.889L72.41 171.243C73.6921 171.521 74.9984 171.773 76.2926 171.991L76.1821 172.644ZM111.772 171.334L111.613 170.692C112.889 170.377 114.173 170.028 115.429 169.656L115.617 170.29C114.352 170.665 113.058 171.016 111.772 171.334ZM68.3963 170.955C67.1171 170.615 65.8298 170.241 64.5701 169.843L64.7695 169.213C66.0197 169.608 67.2971 169.979 68.5663 170.316L68.3963 170.955ZM119.41 169.07L119.193 168.446C120.432 168.016 121.678 167.551 122.897 167.063L123.143 167.677C121.914 168.168 120.658 168.637 119.41 169.07H119.41ZM60.7895 168.553C59.5471 168.097 58.297 167.604 57.0741 167.09L57.331 166.48C58.5445 166.991 59.785 167.479 61.018 167.932L60.7895 168.553ZM126.799 166.117L126.525 165.515C127.715 164.975 128.911 164.399 130.079 163.802L130.381 164.391C129.203 164.992 127.998 165.573 126.799 166.117H126.799ZM133.88 162.501L133.552 161.927C134.693 161.277 135.832 160.593 136.937 159.895L137.291 160.454C136.177 161.157 135.03 161.846 133.88 162.501H133.88ZM140.605 158.251L140.226 157.71C141.301 156.96 142.373 156.175 143.413 155.376L143.817 155.9C142.769 156.705 141.688 157.496 140.605 158.251ZM39.7336 157.32C38.6654 156.545 37.5983 155.734 36.5617 154.907L36.9747 154.39C38.0033 155.211 39.0623 156.016 40.1223 156.785L39.7336 157.32ZM146.918 153.405L146.491 152.899C147.493 152.055 148.49 151.176 149.454 150.285L149.903 150.77C148.932 151.668 147.927 152.554 146.918 153.405H146.918ZM33.504 152.352C32.5092 151.482 31.5208 150.577 30.5665 149.661L31.0247 149.184C31.9719 150.093 32.9527 150.991 33.94 151.855L33.504 152.352ZM152.766 148.002L152.295 147.537C153.218 146.603 154.132 145.636 155.009 144.663L155.501 145.105C154.617 146.086 153.697 147.06 152.766 148.002ZM27.7553 146.841C26.8425 145.882 25.9411 144.891 25.076 143.896L25.5759 143.462C26.4344 144.45 27.3289 145.434 28.2349 146.385L27.7553 146.841ZM158.101 142.087L157.589 141.668C158.423 140.654 159.245 139.608 160.031 138.558L160.561 138.953C159.769 140.012 158.941 141.066 158.101 142.087L158.101 142.087ZM22.5342 140.832C21.7145 139.798 20.9074 138.73 20.1352 137.658L20.6723 137.272C21.4387 138.335 22.2396 139.395 23.0532 140.422L22.5342 140.832ZM162.875 135.71L162.328 135.339C163.066 134.253 163.789 133.136 164.476 132.017L165.04 132.363C164.347 133.49 163.619 134.616 162.875 135.71L162.875 135.71ZM17.8844 134.378C17.1633 133.274 16.4575 132.137 15.7865 131L16.3565 130.664C17.0226 131.793 17.723 132.921 18.4386 134.016L17.8844 134.378ZM167.05 128.92L166.471 128.601C167.106 127.452 167.723 126.273 168.306 125.095L168.899 125.388C168.312 126.575 167.69 127.763 167.05 128.92ZM170.584 121.774L169.978 121.508C170.505 120.305 171.012 119.073 171.483 117.846L172.101 118.083C171.626 119.32 171.116 120.561 170.584 121.774ZM10.4535 120.347C9.94616 119.131 9.46029 117.886 9.00948 116.648L9.63157 116.422C10.0788 117.651 10.561 118.886 11.0643 120.093L10.4535 120.347ZM173.446 114.326L172.818 114.118C173.231 112.875 173.621 111.604 173.976 110.341L174.613 110.52C174.255 111.793 173.862 113.073 173.446 114.326ZM7.73462 112.877C7.34085 111.617 6.97083 110.33 6.63491 109.051L7.27509 108.883C7.60843 110.153 7.9757 111.43 8.3664 112.68L7.73462 112.877ZM175.603 106.665L174.959 106.515C175.255 105.241 175.526 103.939 175.764 102.648L176.415 102.767C176.175 104.069 175.902 105.38 175.603 106.665V106.665ZM5.71327 105.179C5.43729 103.888 5.18749 102.572 4.97097 101.269L5.62376 101.16C5.83882 102.454 6.08668 103.76 6.36056 105.041L5.71327 105.179ZM177.046 98.8379L176.39 98.7481C176.568 97.4534 176.718 96.1331 176.836 94.8239L177.496 94.8832C177.376 96.2029 177.225 97.5331 177.046 98.8379V98.8379ZM4.409 97.3285C4.25291 96.0198 4.12478 94.687 4.02799 93.3671L4.68821 93.3186C4.78402 94.6289 4.91135 95.9514 5.06631 97.2503L4.409 97.3285ZM177.765 90.9128L177.104 90.8831C177.163 89.5732 177.193 88.2445 177.193 86.9343H177.855C177.855 88.2545 177.825 89.5932 177.765 90.9128ZM3.82747 89.3918C3.80485 88.5812 3.79338 87.7542 3.79321 86.9343C3.79321 86.4255 3.79758 85.9178 3.8063 85.411L4.46813 85.4226C4.45941 85.9255 4.45504 86.4294 4.45504 86.9343C4.45521 87.7481 4.46668 88.5689 4.48898 89.3737L3.82747 89.3918ZM4.62519 81.4759L3.96465 81.4346C4.04722 80.1137 4.16129 78.7795 4.30332 77.4691L4.96128 77.5403C4.82022 78.8408 4.70726 80.1648 4.62518 81.4759H4.62519ZM176.766 77.4427C176.633 76.1393 176.452 75.5039 176.26 74.2062L176.914 74.1097C177.108 75.4172 177.273 76.4153 177.407 77.7285L176.766 77.4427ZM5.47654 73.6244L4.82247 73.5233C5.02525 72.2155 5.26083 70.8973 5.52275 69.605L6.17135 69.7361C5.91152 71.0186 5.67771 72.3267 5.47654 73.6244ZM175.592 70.3137C175.339 69.0241 175.055 67.726 174.745 66.4554L175.388 66.2992C175.7 67.5794 175.987 68.8876 176.241 70.1869L175.592 70.3137ZM7.04419 65.8839L6.40223 65.7232C6.72362 64.4428 7.07957 63.1517 7.46026 61.8857L8.09396 62.0758C7.71636 63.3322 7.36315 64.6134 7.04419 65.8839ZM173.721 62.6401C173.352 61.3813 172.949 60.1151 172.523 58.8762L173.148 58.6612C173.578 59.9097 173.985 61.1859 174.357 62.4542L173.721 62.6401ZM9.32246 58.3099L8.69812 58.0907C9.13794 56.841 9.61282 55.5853 10.1095 54.3585L10.7232 54.6064C10.2302 55.8237 9.75889 57.0698 9.32246 58.3099ZM171.151 55.1714C170.668 53.9548 170.151 52.7338 169.614 51.5422L170.218 51.2707C170.759 52.4715 171.28 53.7019 171.766 54.9277L171.151 55.1714ZM12.2929 50.9726L11.6915 50.6966C12.2443 49.4942 12.8326 48.2883 13.4402 47.1127L14.0283 47.4158C13.4253 48.5826 12.8415 49.7792 12.2929 50.9726ZM167.912 47.9859C167.32 46.8188 166.692 45.6493 166.047 44.5103L166.623 44.1846C167.273 45.3324 167.905 46.5108 168.502 47.687L167.912 47.9859ZM15.9254 43.9434L15.3518 43.6135C16.012 42.4684 16.7083 41.3221 17.4213 40.2069L17.9791 40.5626C17.2715 41.6695 16.5805 42.807 15.9254 43.9434ZM164.024 41.1222C163.325 40.0101 162.592 38.9022 161.847 37.8293L162.391 37.4525C163.142 38.5338 163.88 39.65 164.584 40.7706L164.024 41.1222ZM20.1853 37.28L19.6443 36.8991C20.4073 35.8182 21.205 34.7408 22.0159 33.6969L22.5387 34.102C21.7342 35.1382 20.9423 36.2073 20.1853 37.28ZM159.522 34.6382C158.724 33.5947 157.894 32.5574 157.053 31.5551L157.56 31.1305C158.407 32.1405 159.244 33.1856 160.048 34.237L159.522 34.6382ZM25.0343 31.0356L24.5305 30.6069C25.3867 29.6023 26.2791 28.6025 27.1828 27.635L27.6666 28.086C26.7698 29.0461 25.8842 30.0386 25.0343 31.0356ZM154.445 28.5868C153.556 27.6202 152.634 26.6621 151.705 25.7395L152.171 25.2705C153.108 26.2003 154.037 27.1655 154.933 28.1394L154.445 28.5868ZM30.4298 25.2602L29.967 24.7876C30.9134 23.8628 31.8927 22.9484 32.8776 22.0701L33.3183 22.5633C32.341 23.4349 31.3691 24.3423 30.4298 25.2602ZM148.837 23.0191C147.863 22.1364 146.857 21.2658 145.847 20.4315L146.269 19.9222C147.286 20.7628 148.3 21.64 149.282 22.5294L148.837 23.0191ZM36.3262 20.0006L35.9083 19.488C36.9319 18.6553 37.9898 17.8341 39.0527 17.0471L39.4469 17.5781C38.392 18.3593 37.342 19.1742 36.3262 20.0006ZM42.6738 15.3011L42.3045 14.7527C43.4 14.0164 44.5278 13.2954 45.6568 12.6093L46.0006 13.1742C44.8804 13.855 43.7611 14.5706 42.6738 15.3011ZM49.4204 11.2019L49.1028 10.6218C50.2618 9.98828 51.4502 9.37366 52.6349 8.79472L52.9257 9.38867C51.7501 9.96311 50.5707 10.573 49.4204 11.2019ZM129.294 9.67016C128.116 9.0841 126.91 8.51792 125.708 7.98739L125.976 7.38279C127.187 7.91735 128.402 8.4879 129.589 9.07846L129.294 9.67016ZM56.5093 7.73835L56.2462 7.1318C57.4574 6.6074 58.6964 6.10448 59.9286 5.6369L60.1636 6.25507C58.9407 6.71895 57.7113 7.218 56.5093 7.73835ZM122.048 6.47087C120.822 5.9962 119.568 5.54329 118.32 5.12494L118.53 4.49806C119.788 4.9198 121.052 5.37608 122.287 5.85463L122.048 6.47087ZM63.8915 4.93821L63.6854 4.31004C64.9431 3.89814 66.2264 3.5103 67.4993 3.15764L67.6762 3.79453C66.413 4.14461 65.1396 4.52938 63.8915 4.93821ZM114.543 3.95528C113.28 3.59584 111.993 3.2611 110.716 2.96041L110.868 2.31707C112.155 2.62001 113.452 2.95734 114.724 3.31936L114.543 3.95528ZM71.5098 2.82629L71.3625 2.18181C72.6519 1.88758 73.9654 1.61949 75.2663 1.38514L75.3839 2.03558C74.0927 2.26832 72.7894 2.53431 71.5098 2.82629ZM106.848 2.14307C105.559 1.90146 104.246 1.68647 102.946 1.50409L103.037 0.849449C104.348 1.03328 105.671 1.24988 106.97 1.49328L106.848 2.14307ZM79.2904 1.42372L79.2028 0.768432C80.5129 0.593796 81.8453 0.44692 83.1628 0.332329L83.2204 0.990842C81.9128 1.10478 80.5908 1.25037 79.2904 1.42372ZM99.0183 1.04443C97.7147 0.921763 96.3878 0.827184 95.0742 0.763751L95.1065 0.103315C96.4298 0.167392 97.7667 0.26262 99.0804 0.386265L99.0183 1.04443ZM87.1668 0.737281L87.139 0.0768445C88.3553 0.0261648 89.595 0.000339196 90.824 1.52588e-05L91.1235 0.000501352L91.1216 0.661599L90.824 0.661112C89.6044 0.661417 88.3738 0.68708 87.1668 0.737274V0.737281Z" fill="#3F3D56"/>
<path d="M197.305 31.1397V245.401C197.303 247.954 196.286 250.401 194.479 252.205C192.671 254.009 190.221 255.023 187.666 255.024H100.585C99.3194 255.026 98.0655 254.778 96.8954 254.296C95.7253 253.813 94.662 253.105 93.7666 252.211C92.8711 251.317 92.161 250.255 91.677 249.087C91.1929 247.918 90.9445 246.666 90.9458 245.401V31.1397C90.9457 29.8752 91.195 28.623 91.6794 27.4547C92.1638 26.2865 92.8738 25.2249 93.7689 24.3308C94.6641 23.4366 95.7268 22.7274 96.8963 22.2435C98.0659 21.7597 99.3195 21.5107 100.585 21.5108H113.617V23.1801C113.617 25.2827 114.452 27.2994 115.941 28.7865C117.429 30.2736 119.447 31.1093 121.552 31.1099H165.842C167.536 31.1135 169.186 30.571 170.547 29.563C170.823 29.3631 171.084 29.1444 171.328 28.9085C172.104 28.1691 172.72 27.28 173.141 26.2953C173.562 25.3106 173.779 24.2508 173.777 23.1801V21.5108H187.666C188.932 21.5104 190.185 21.7592 191.355 22.243C192.525 22.7267 193.588 23.436 194.483 24.3302C195.378 25.2244 196.088 26.286 196.572 27.4544C197.057 28.6228 197.306 29.8751 197.305 31.1397Z" fill="#3F3D56"/>
<path d="M184.574 98.7501H103.677V160.232H184.574V98.7501Z" fill="#1A8832"/>
<path d="M61.0776 88.3909C68.2802 88.5453 74.0098 93.7591 74.0098 93.7591C74.0098 93.7591 68.0616 98.7227 60.859 98.5683C53.6564 98.414 47.9268 93.2002 47.9268 93.2002C47.9268 93.2002 53.8749 88.2366 61.0776 88.3909Z" fill="#1A8832"/>
<path d="M24.8663 63.8318C31.3735 66.9199 38.8353 64.8259 38.8353 64.8259C38.8353 64.8259 35.7467 57.7251 29.2394 54.637C22.7322 51.549 15.2704 53.643 15.2704 53.643C15.2704 53.643 18.359 60.7438 24.8663 63.8318Z" fill="#1A8832"/>
<path d="M25.5279 60.7631C32.7023 60.1082 38.982 64.646 38.982 64.646C38.982 64.646 33.6298 70.2457 26.4554 70.9006C19.281 71.5555 13.0012 67.0177 13.0012 67.0177C13.0012 67.0177 18.3535 61.418 25.5279 60.7631Z" fill="#3F3D56"/>
<path d="M51.8269 62.0038C51.1392 69.1673 55.654 75.4603 55.654 75.4603C55.654 75.4603 61.2837 70.139 61.9714 62.9755C62.6591 55.8121 58.1443 49.5191 58.1443 49.5191C58.1443 49.5191 52.5146 54.8404 51.8269 62.0038Z" fill="#3F3D56"/>
<path d="M85.6147 105.937C81.8517 112.074 83.1464 119.707 83.1464 119.707C83.1464 119.707 90.5421 117.391 94.3051 111.254C98.0681 105.118 96.7734 97.4844 96.7734 97.4844C96.7734 97.4844 89.3777 99.8005 85.6147 105.937Z" fill="#3F3D56"/>
<path d="M74.6978 172.658L75.2462 172.288C73.3132 169.486 72.2578 166.173 72.214 162.77C72.2294 157.793 74.6768 153.189 77.0438 148.737C77.4831 147.911 77.921 147.087 78.3423 146.264C80.1104 142.907 81.5195 139.374 82.5462 135.722C86.2177 122.093 82.6029 106.014 72.8771 92.7103C65.1617 82.1563 53.6603 72.9274 37.7161 64.4962L37.4065 65.0805C53.2599 73.4636 64.6876 82.6291 72.3426 93.1003C81.9515 106.244 85.5269 122.113 81.907 135.55C80.8923 139.157 79.5 142.648 77.7531 145.963C77.3332 146.783 76.8969 147.604 76.4592 148.427C74.0546 152.95 71.568 157.627 71.5522 162.768C71.5959 166.304 72.6909 169.746 74.6978 172.658Z" fill="#3F3D56"/>
<path d="M6.28751 65.3648C9.75995 65.3648 12.5749 62.553 12.5749 59.0844C12.5749 55.6158 9.75995 52.804 6.28751 52.804C2.81508 52.804 0.00012207 55.6158 0.00012207 59.0844C0.00012207 62.553 2.81508 65.3648 6.28751 65.3648Z" fill="#3F3D56"/>
<path d="M94.7947 161.03L55.3268 157.745V99.9229L94.7947 97.9518V161.03Z" fill="#1A8832"/>
<path d="M193.456 161.03L232.924 157.745V99.9229L193.456 97.9518V161.03Z" fill="#1A8832"/>
<path d="M157.845 121.827C156.671 120.814 155.223 120.169 153.684 119.974C152.145 119.778 150.582 120.041 149.191 120.728C147.984 121.312 146.684 121.683 145.35 121.826C145.317 118.94 145.847 116.075 146.912 113.391L147.086 112.941H144.767L144.7 113.185C144.442 114.134 144.238 115.096 144.09 116.069C143.965 115.647 143.802 115.238 143.605 114.845C141.978 111.622 138.218 110.304 138.059 110.25L137.738 110.14L137.636 110.463C137.585 110.623 136.411 114.426 138.038 117.649C139.203 119.956 141.461 121.287 142.708 121.877C141.13 121.775 139.587 121.363 138.168 120.664C137.284 120.208 136.289 120.011 135.298 120.095C134.307 120.178 133.359 120.539 132.563 121.136C128.232 124.424 125.748 129.243 125.748 134.358C125.748 141.077 130.105 147.231 136.847 150.035C137.455 150.287 138.107 150.416 138.765 150.415C139.68 150.416 140.577 150.17 141.363 149.704C142.409 149.096 143.595 148.775 144.804 148.773C146.014 148.771 147.202 149.087 148.249 149.69C148.927 150.089 149.688 150.325 150.472 150.381C151.256 150.436 152.043 150.308 152.77 150.008C159.472 147.193 163.803 141.05 163.803 134.358C163.803 129.568 161.687 125.118 157.845 121.827ZM145.273 113.603H146.125C145.167 116.165 144.678 118.88 144.683 121.615H144.531C144.326 118.922 144.577 116.213 145.273 113.603ZM138.629 117.351C137.394 114.905 137.936 111.989 138.175 111.005C139.11 111.397 141.776 112.692 143.014 115.142C144.249 117.588 143.707 120.504 143.468 121.488C142.533 121.095 139.864 119.797 138.629 117.351ZM152.513 149.398C151.881 149.659 151.198 149.77 150.516 149.721C149.834 149.673 149.173 149.467 148.585 149.12C147.435 148.457 146.131 148.109 144.803 148.112C143.476 148.115 142.172 148.468 141.025 149.136C140.438 149.484 139.778 149.692 139.097 149.742C138.416 149.792 137.733 149.684 137.101 149.425C130.606 146.724 126.41 140.81 126.41 134.358C126.41 129.451 128.799 124.824 132.964 121.663C133.763 121.06 134.737 120.735 135.739 120.737C136.478 120.737 137.207 120.913 137.865 121.251C139.678 122.115 141.659 122.569 143.668 122.581C145.676 122.593 147.663 122.163 149.486 121.32C150.76 120.69 152.192 120.45 153.602 120.63C155.012 120.809 156.338 121.4 157.414 122.329C161.107 125.492 163.142 129.764 163.142 134.358C163.142 140.783 158.97 146.687 152.513 149.398Z" fill="white"/>
<path d="M74.9527 115.58V114.804H75.2614V112.386C75.2626 112.207 75.2144 112.031 75.1222 111.877C75.0299 111.723 74.8972 111.598 74.7384 111.514C73.3726 110.803 71.9048 110.803 70.3757 111.518C70.207 111.598 70.0644 111.724 69.9647 111.882C69.865 112.04 69.8122 112.223 69.8125 112.409V114.804H70.1213V115.506C68.9847 115.824 67.984 116.506 67.2727 117.447C66.5614 118.388 66.1787 119.536 66.1834 120.715V125.946L66.7715 126.142L66.1834 126.534V128.106L66.7715 128.302L66.1834 128.693V130.266L66.7715 130.461L66.1834 130.853V142.826C66.1845 143.76 66.5563 144.656 67.2174 145.316C67.8785 145.976 68.7749 146.348 69.7099 146.349H74.9087C75.8416 146.348 76.7359 145.977 77.3955 145.319C78.0552 144.66 78.4262 143.766 78.4273 142.834V130.853L77.8391 130.461L78.4273 130.266V128.693L77.8391 128.302L78.4273 128.106V126.534L77.8391 126.142L78.4273 125.946V120.445C78.4233 119.374 78.087 118.332 77.4647 117.46C76.8423 116.589 75.9646 115.932 74.9527 115.58ZM70.6559 112.117C72.0075 111.486 73.243 111.481 74.432 112.101C74.4832 112.129 74.5258 112.17 74.5553 112.22C74.5848 112.27 74.6001 112.328 74.5996 112.386V113.68H70.4743V112.409C70.4738 112.348 70.4905 112.288 70.5227 112.237C70.5548 112.185 70.601 112.143 70.6559 112.117ZM77.7654 125.47L76.3461 125.942L77.7654 126.888V127.629L76.3461 128.102L77.7654 129.047V129.789L76.3461 130.261L77.7654 131.207V142.834C77.7646 143.591 77.4633 144.316 76.9278 144.851C76.3922 145.386 75.6661 145.687 74.9087 145.688H69.7099C68.9504 145.687 68.2222 145.385 67.6852 144.849C67.1481 144.312 66.8461 143.585 66.8452 142.826V131.207L68.2645 130.261L66.8452 129.789V129.047L68.2645 128.102L66.8452 127.629V126.888L68.2645 125.942L66.8452 125.47V120.715C66.841 119.64 67.2034 118.596 67.8725 117.754C68.5417 116.913 69.4778 116.324 70.5268 116.085L70.7831 116.025V114.804H74.2908V116.07L74.5295 116.139C75.461 116.413 76.2792 116.98 76.8622 117.756C77.4452 118.532 77.762 119.475 77.7654 120.445V125.47Z" fill="white"/>
<path d="M230.504 124.633L228.838 124.3L229.23 123.516L228.466 123.363L228.598 122.57L227.764 122.43V121.678L227.086 121.484L227.729 120.682H226.614L226.847 120.101L226.022 119.964L226.302 118.984H225.41V118.07H225.079C224.037 118.07 223.455 119.307 223.264 119.802C217.509 120.805 200.798 132.367 198.89 133.697C198.098 133.44 196.923 134.042 196.678 134.175L196.289 134.387L196.849 134.946L196.682 135.447L197.711 135.832L197.485 136.394L198.133 136.934L197.551 137.37L198.427 137.895L198.273 138.662L199.251 138.801V139.569L199.819 139.683L199.536 140.674H200.166V141.457H200.781L201.06 142.292L201.346 142.235C202.012 142.102 202.582 141.182 202.805 140.774C208.348 139.786 225.461 127.759 227.127 126.581C229.071 126.814 229.786 126.295 229.862 126.234L230.179 125.981L229.423 125.352L230.504 124.633ZM227.084 125.909L226.955 125.892L226.849 125.968C226.66 126.102 207.892 139.383 202.542 140.146L202.371 140.171L202.293 140.326C202.088 140.744 201.811 141.122 201.474 141.444L201.258 140.796H200.828V140.012H200.413L200.652 139.175L199.913 139.027V138.228L199.06 138.106L199.167 137.567L198.735 137.308L199.199 136.961L198.278 136.194L198.576 135.45L197.512 135.052L197.607 134.768L197.401 134.563C197.898 134.356 198.499 134.203 198.758 134.357L198.942 134.468L199.118 134.344C199.306 134.213 217.946 121.19 223.555 120.426L223.764 120.397L223.826 120.196C223.923 119.883 224.265 119.094 224.748 118.823V119.645H225.425L225.182 120.494L225.927 120.618L225.636 121.343H226.352L225.948 121.847L227.102 122.176V122.991L227.837 123.113L227.708 123.886L228.251 123.995L227.859 124.778L228.807 124.968L228.319 125.293L229.021 125.878C228.383 126.008 227.726 126.018 227.084 125.909Z" fill="white"/>
<path d="M144.126 188.329C149.426 188.329 153.722 184.037 153.722 178.743C153.722 173.449 149.426 169.157 144.126 169.157C138.826 169.157 134.529 173.449 134.529 178.743C134.529 184.037 138.826 188.329 144.126 188.329Z" fill="#1A8832"/>
<path d="M150.168 177.796H145.073V172.707H143.178V177.796H138.083V179.69H143.178V184.778H145.073V179.69H150.168V177.796Z" fill="white"/>
<path d="M174.393 179.073L169.429 176.76V178.082H157.847V180.065H169.429V181.387L174.393 179.073Z" fill="white"/>
<path d="M113.859 179.073L118.822 176.76V178.082H130.405V180.065H118.822V181.387L113.859 179.073Z" fill="white"/>
<path d="M265.406 255.1H22.8452V255.761H265.406V255.1Z" fill="#3F3D56"/>
<path d="M175.893 52.8039H112.358V53.465H175.893V52.8039Z" fill="white"/>
<path d="M176.047 233.283H112.511V233.944H176.047V233.283Z" fill="white"/>
<path d="M278.135 168L276.48 174.28C276.48 174.28 270.524 187.502 276.48 188.163C282.437 188.825 282.768 170.975 282.768 170.975L278.135 168Z" fill="#A0616A"/>
<path d="M288.393 122.715L276.48 169.653C276.48 169.653 281.113 170.975 283.429 172.628L288.393 122.715Z" fill="#D0CDE1"/>
<path d="M325.787 158.414L329.096 209.649C329.096 209.649 337.038 229.813 336.707 248.984C336.707 248.984 333.728 256.587 336.045 257.909C338.361 259.231 339.685 260.223 338.361 261.215C337.038 262.206 336.045 264.52 337.038 265.181C338.03 265.842 338.361 266.834 338.03 266.834H328.103C328.103 266.834 330.088 261.876 327.11 260.554C324.132 259.231 325.787 255.926 325.787 255.926L303.615 191.138L286.077 250.637C286.077 250.637 289.055 252.62 286.738 253.612C284.422 254.604 283.429 252.62 284.422 254.604C285.415 256.587 284.091 257.579 284.091 257.909C284.091 258.24 274.164 256.918 274.164 256.918C274.164 256.918 279.127 252.62 276.811 251.629C274.495 250.637 273.502 249.646 274.164 248.984C274.826 248.323 277.473 242.043 277.473 242.043C277.473 242.043 278.797 218.243 279.127 217.252C279.458 216.26 279.127 211.632 279.127 209.319C279.127 207.005 278.797 197.749 279.789 195.436C280.782 193.122 281.775 164.695 287.069 161.389C292.364 158.084 325.787 158.414 325.787 158.414Z" fill="#2F2E41"/>
<path d="M283.76 256.257C283.76 256.257 290.379 269.809 285.746 271.462C281.113 273.115 275.157 271.792 273.833 273.776C272.509 275.759 257.949 278.073 257.618 273.115C257.287 268.156 273.502 258.901 273.502 258.901L275.614 255.504L283.76 256.257Z" fill="#2F2E41"/>
<path d="M337.368 266.173C337.368 266.173 343.987 279.725 339.354 281.378C334.721 283.031 328.765 281.709 327.441 283.692C326.117 285.675 311.557 287.989 311.226 283.031C310.895 278.073 327.11 268.817 327.11 268.817L329.222 265.42L337.368 266.173Z" fill="#2F2E41"/>
<path d="M306.759 96.1057C312.79 96.1057 317.679 91.222 317.679 85.1976C317.679 79.1732 312.79 74.2895 306.759 74.2895C300.728 74.2895 295.839 79.1732 295.839 85.1976C295.839 91.222 300.728 96.1057 306.759 96.1057Z" fill="#A0616A"/>
<path d="M314.205 90.9822L312.881 100.568L302.953 108.171L300.306 104.535V91.9738L314.205 90.9822Z" fill="#A0616A"/>
<path d="M298.651 103.213C298.651 103.213 308.91 104.204 314.204 100.568L324.794 163.042C324.794 163.042 287.4 166.017 285.746 164.033V144.531L292.364 112.798L298.651 103.213Z" fill="#3F3D56"/>
<path d="M313.293 97.5812L316.852 100.568C316.852 100.568 331.412 102.882 330.419 106.849L326.448 153.786L327.772 169.653C327.772 169.653 316.521 166.678 307.917 169.653C299.313 172.628 306.149 105.724 306.149 105.724C306.149 105.724 314.037 98.5609 313.293 97.5812Z" fill="#D0CDE1"/>
<path d="M300.306 101.199C300.306 101.199 289.717 108.832 288.393 113.79C287.069 118.748 282.768 170.975 282.768 170.975C282.768 170.975 284.753 169.983 285.746 171.636C286.739 173.289 301.961 103.814 300.306 101.199Z" fill="#D0CDE1"/>
<path d="M329.427 170.314L327.054 178.046C327.054 178.046 326.448 192.461 318.506 190.477C310.564 188.494 320.823 171.636 320.823 171.636L323.139 168L329.427 170.314Z" fill="#A0616A"/>
<path d="M295.844 84.7224C295.844 84.7224 294.662 82.9511 295.116 81.0435C295.388 79.9605 295.495 78.8428 295.435 77.728C295.435 77.728 296.39 74.6396 297.344 72.9137C298.299 71.1878 297.845 70.4611 300.845 69.9161C303.846 69.3711 302.619 65.4651 310.53 69.689C310.797 70.0613 311.168 70.3462 311.597 70.5079C312.026 70.6695 312.493 70.7007 312.94 70.5974C314.577 70.2794 315.168 72.5503 315.168 72.5503C315.168 72.5503 316.259 71.9145 316.668 72.8228C317.078 73.7312 319.995 72.2777 319.995 78.4091C319.995 84.5405 316.675 90.0175 316.675 90.0175C316.675 90.0175 316.919 79.7037 311.508 78.6591C306.097 77.6144 300.277 74.5714 298.868 78.4774C298.107 80.6696 297.092 82.7655 295.844 84.7224Z" fill="#2F2E41"/>
<path d="M316.794 87.1746C317.383 87.1746 317.861 86.5382 317.861 85.7532C317.861 84.9681 317.383 84.3317 316.794 84.3317C316.204 84.3317 315.726 84.9681 315.726 85.7532C315.726 86.5382 316.204 87.1746 316.794 87.1746Z" fill="#A0616A"/>
<path d="M327.772 104.535C327.772 104.535 333.067 103.213 334.721 112.137C336.376 121.062 338.361 146.514 338.361 146.514L330.419 173.289C330.419 173.289 322.477 168.992 320.823 169.653L327.073 146.408L321.816 122.715C321.816 122.715 326.448 104.535 327.772 104.535Z" fill="#D0CDE1"/>
<path opacity="0.15" d="M320.074 123.167L327.023 146.305L320.074 169.774L324.045 146.305L320.074 123.167Z" fill="black"/>
</svg>
