<svg width="17" height="16" viewBox="0 0 17 16" fill="none" xmlns="http://www.w3.org/2000/svg">
<path d="M14.7492 5.51719L10.782 4.94063L9.00853 1.34532C8.96009 1.24688 8.8804 1.16719 8.78196 1.11875C8.53509 0.996878 8.23509 1.09844 8.11165 1.34532L6.33821 4.94063L2.37103 5.51719C2.26165 5.53281 2.16165 5.58438 2.08509 5.6625C1.99253 5.75764 1.94152 5.88563 1.94328 6.01835C1.94504 6.15107 1.99942 6.27766 2.09446 6.37031L4.96478 9.16875L4.28665 13.1203C4.27075 13.2122 4.28092 13.3068 4.31601 13.3932C4.35111 13.4796 4.40971 13.5545 4.48519 13.6093C4.56067 13.6642 4.65001 13.6967 4.74306 13.7034C4.83611 13.71 4.92916 13.6904 5.01165 13.6469L8.56009 11.7812L12.1085 13.6469C12.2054 13.6984 12.3179 13.7156 12.4257 13.6969C12.6976 13.65 12.8804 13.3922 12.8335 13.1203L12.1554 9.16875L15.0257 6.37031C15.1038 6.29375 15.1554 6.19375 15.171 6.08438C15.2132 5.81094 15.0226 5.55781 14.7492 5.51719Z" fill="#FFC700"/>
</svg>
