<svg width="36" height="36" viewBox="0 0 36 36" fill="none" xmlns="http://www.w3.org/2000/svg">
<path d="M13.5 7.5C13.1022 7.5 12.7206 7.65803 12.4393 7.93934C12.158 8.22064 12 8.60217 12 9C12 9.39782 12.158 9.77935 12.4393 10.0607C12.7206 10.342 13.1022 10.5 13.5 10.5C13.8978 10.5 14.2794 10.342 14.5607 10.0607C14.842 9.77935 15 9.39782 15 9C15 8.60217 14.842 8.22064 14.5607 7.93934C14.2794 7.65803 13.8978 7.5 13.5 7.5ZM9.255 7.5C9.5649 6.6217 10.1396 5.86115 10.8999 5.32318C11.6602 4.78522 12.5686 4.49632 13.5 4.49632C14.4314 4.49632 15.3398 4.78522 16.1001 5.32318C16.8604 5.86115 17.4351 6.6217 17.745 7.5H28.5C28.8978 7.5 29.2794 7.65803 29.5607 7.93934C29.842 8.22064 30 8.60217 30 9C30 9.39782 29.842 9.77935 29.5607 10.0607C29.2794 10.342 28.8978 10.5 28.5 10.5H17.745C17.4351 11.3783 16.8604 12.1388 16.1001 12.6768C15.3398 13.2148 14.4314 13.5037 13.5 13.5037C12.5686 13.5037 11.6602 13.2148 10.8999 12.6768C10.1396 12.1388 9.5649 11.3783 9.255 10.5H7.5C7.10218 10.5 6.72064 10.342 6.43934 10.0607C6.15804 9.77935 6 9.39782 6 9C6 8.60217 6.15804 8.22064 6.43934 7.93934C6.72064 7.65803 7.10218 7.5 7.5 7.5H9.255ZM22.5 16.5C22.1022 16.5 21.7206 16.658 21.4393 16.9393C21.158 17.2206 21 17.6022 21 18C21 18.3978 21.158 18.7794 21.4393 19.0607C21.7206 19.342 22.1022 19.5 22.5 19.5C22.8978 19.5 23.2794 19.342 23.5607 19.0607C23.842 18.7794 24 18.3978 24 18C24 17.6022 23.842 17.2206 23.5607 16.9393C23.2794 16.658 22.8978 16.5 22.5 16.5ZM18.255 16.5C18.5649 15.6217 19.1396 14.8611 19.8999 14.3232C20.6602 13.7852 21.5686 13.4963 22.5 13.4963C23.4314 13.4963 24.3398 13.7852 25.1001 14.3232C25.8604 14.8611 26.4351 15.6217 26.745 16.5H28.5C28.8978 16.5 29.2794 16.658 29.5607 16.9393C29.842 17.2206 30 17.6022 30 18C30 18.3978 29.842 18.7794 29.5607 19.0607C29.2794 19.342 28.8978 19.5 28.5 19.5H26.745C26.4351 20.3783 25.8604 21.1388 25.1001 21.6768C24.3398 22.2148 23.4314 22.5037 22.5 22.5037C21.5686 22.5037 20.6602 22.2148 19.8999 21.6768C19.1396 21.1388 18.5649 20.3783 18.255 19.5H7.5C7.10218 19.5 6.72064 19.342 6.43934 19.0607C6.15804 18.7794 6 18.3978 6 18C6 17.6022 6.15804 17.2206 6.43934 16.9393C6.72064 16.658 7.10218 16.5 7.5 16.5H18.255ZM13.5 25.5C13.1022 25.5 12.7206 25.658 12.4393 25.9393C12.158 26.2206 12 26.6022 12 27C12 27.3978 12.158 27.7794 12.4393 28.0607C12.7206 28.342 13.1022 28.5 13.5 28.5C13.8978 28.5 14.2794 28.342 14.5607 28.0607C14.842 27.7794 15 27.3978 15 27C15 26.6022 14.842 26.2206 14.5607 25.9393C14.2794 25.658 13.8978 25.5 13.5 25.5ZM9.255 25.5C9.5649 24.6217 10.1396 23.8611 10.8999 23.3232C11.6602 22.7852 12.5686 22.4963 13.5 22.4963C14.4314 22.4963 15.3398 22.7852 16.1001 23.3232C16.8604 23.8611 17.4351 24.6217 17.745 25.5H28.5C28.8978 25.5 29.2794 25.658 29.5607 25.9393C29.842 26.2206 30 26.6022 30 27C30 27.3978 29.842 27.7794 29.5607 28.0607C29.2794 28.342 28.8978 28.5 28.5 28.5H17.745C17.4351 29.3783 16.8604 30.1388 16.1001 30.6768C15.3398 31.2148 14.4314 31.5037 13.5 31.5037C12.5686 31.5037 11.6602 31.2148 10.8999 30.6768C10.1396 30.1388 9.5649 29.3783 9.255 28.5H7.5C7.10218 28.5 6.72064 28.342 6.43934 28.0607C6.15804 27.7794 6 27.3978 6 27C6 26.6022 6.15804 26.2206 6.43934 25.9393C6.72064 25.658 7.10218 25.5 7.5 25.5H9.255Z" fill="#C4C4C4"/>
</svg>
