<svg width="16" height="16" viewBox="0 0 16 16" fill="none" xmlns="http://www.w3.org/2000/svg">
<path d="M7.99996 1.66672C5.507 1.66672 3.4878 3.68704 3.4878 6.17888C3.48622 7.15211 3.80077 8.09953 4.38412 8.87856L7.27836 13.8917C7.29516 13.924 7.31196 13.9562 7.3326 13.9858L7.339 13.9968L7.34076 13.9958C7.4161 14.1008 7.51547 14.1863 7.63056 14.245C7.74566 14.3038 7.87314 14.3341 8.00236 14.3336C8.25132 14.3336 8.46828 14.2203 8.61756 14.0458L8.62508 14.0501L8.65372 14.0005C8.69596 13.9435 8.7334 13.8827 8.76044 13.8157L11.596 8.904C12.1917 8.12053 12.5135 7.16309 12.5121 6.17888C12.5121 3.68704 10.4929 1.66672 7.99996 1.66672ZM7.95532 8.4664C6.727 8.4664 5.73212 7.47104 5.73212 6.2432C5.73212 5.01552 6.727 4.02 7.95532 4.02C9.18364 4.02 10.1785 5.01552 10.1785 6.2432C10.1785 7.47088 9.18364 8.4664 7.95532 8.4664Z" fill="white"/>
</svg>
